<svg width="565" height="207" viewBox="0 0 565 207" fill="none" xmlns="http://www.w3.org/2000/svg">
<path d="M198.956 63.2117C193.739 50.886 186.282 39.8153 176.775 30.3148C167.268 20.8078 156.204 13.3506 143.878 8.13388C131.112 2.7332 117.558 0 103.59 0C89.6217 0 76.0608 2.73977 63.3015 8.13388C50.9759 13.3506 39.9051 20.8078 30.4046 30.3148C20.8976 39.8218 13.4404 50.886 8.22373 63.2117C2.82304 75.9775 0.0898438 89.5318 0.0898438 103.5C0.0898438 117.468 2.82961 131.029 8.22373 143.788C13.4404 156.114 20.8976 167.185 30.4046 176.685C39.9117 186.192 50.9759 193.649 63.3015 198.866C76.0674 204.267 89.6217 207 103.59 207C117.558 207 131.119 204.26 143.878 198.866C156.204 193.649 167.275 186.192 176.775 176.685C186.282 167.178 193.739 156.114 198.956 143.788C204.357 131.022 207.09 117.468 207.09 103.5C207.09 89.5318 204.357 75.9775 198.956 63.2117ZM102.939 201.31C98.8922 201.284 94.8975 201.015 90.9817 200.509C105.705 188.912 137.203 164.182 149.318 155.358C165.369 143.67 179.889 132.829 187.169 129.564C190.086 128.256 194.882 125.352 199.587 122.337C199.114 124.761 198.555 127.146 197.905 129.498C174.213 146.127 121.06 187.237 102.939 201.31ZM189.837 117.468C181.072 121.903 137.689 143.92 125.942 151.062C113.964 158.341 67.4342 186.238 59.6419 190.903C53.9522 188.038 48.5843 184.635 43.6041 180.759C53.5777 175.798 100.85 152.343 117.013 145.083C135.12 136.949 151.559 129.321 159.358 127.626C165.961 126.187 182.301 119.479 187.136 117.462H189.837V117.468ZM136.053 151.291C153.136 141.18 168.621 131.758 176.177 129.203C179.232 128.171 184.35 125.694 189.37 123.112C173.904 132.954 147.689 149.78 139.226 156.094C129.417 163.413 94.8975 188.853 81.4155 198.794C76.7244 197.71 72.1647 196.284 67.7561 194.55C78.3538 187.703 121.132 160.122 136.053 151.291ZM103.59 5.68978C157.61 5.68978 201.407 49.48 201.407 103.507C201.407 106.733 201.249 109.926 200.94 113.073H171.867V105.839C185.789 104.302 189.449 92.4358 189.009 88.6251C188.568 84.8144 188.273 77.1996 188.273 77.1996C185.415 79.5451 181.019 81.2994 181.019 81.2994C174.778 84.6173 172.058 91.4109 170.947 95.4712L171.23 80.7606C173.536 80.5175 180.737 78.7239 181.414 65.7938C181.414 65.7938 178.746 66.05 176.966 70.3666C175.441 74.0722 173.05 75.9644 171.328 75.8987L171.506 66.753C175.921 66.2668 179.357 62.5284 179.357 57.9818C179.357 53.1067 175.402 49.1515 170.527 49.1515C165.652 49.1515 161.697 53.1067 161.697 57.9818C161.697 61.8122 164.134 65.071 167.551 66.2931L167.912 75.8987C166.184 76.0235 163.74 74.1313 162.196 70.3666C160.415 66.0434 157.748 65.7938 157.748 65.7938C158.438 79.0655 166 80.6095 168.102 80.7803L168.569 93.198C167.353 90.1231 165.376 86.3124 162.268 83.2113C155.967 76.9105 150.107 78.4479 150.107 78.4479C150.107 78.4479 148.425 93.3951 156.624 97.9351C164.83 102.475 167.537 102.771 167.537 102.771V113.079H145.954V54.1383L151.959 59.3747C151.959 59.3747 158.365 58.3892 157.695 57.9884C157.465 57.8504 151 52.2329 142.59 44.894V20.3084H141.743H138.182H129.989H127.098H125.587V30.0454C113.662 19.6251 102.985 10.2692 102.985 10.2692C102.985 10.2692 48.9457 57.5876 48.2821 57.9818C47.6119 58.3826 54.0179 59.3681 54.0179 59.3681L60.023 54.1317V113.073H35.1286V102.764C35.1286 102.764 37.8421 102.468 46.0417 97.9285C54.2478 93.3885 52.5593 78.4413 52.5593 78.4413C52.5593 78.4413 46.6987 76.9039 40.3979 83.2047C37.0734 86.5292 35.03 90.675 33.8474 93.8418L35.398 76.3126C39.8854 75.2942 43.2428 71.2864 43.2428 66.4902C43.2428 60.9252 38.7291 56.4181 33.1707 56.4181C27.6057 56.4181 23.0986 60.9318 23.0986 66.4902C23.0986 71.2798 26.4363 75.2811 30.9171 76.306L31.2785 93.9535C29.9447 89.88 27.1787 84.2231 21.6597 81.2928C21.6597 81.2928 17.2643 79.532 14.4063 77.193C14.4063 77.193 14.1106 84.8144 13.6704 88.6186C13.2302 92.4293 16.8964 104.295 30.812 105.832V113.066H6.23953C5.9373 109.919 5.77305 106.726 5.77305 103.5C5.77305 49.48 49.5633 5.68978 103.59 5.68978ZM166.039 57.9752C166.039 55.4983 168.05 53.4878 170.527 53.4878C173.004 53.4878 175.014 55.4983 175.014 57.9752C175.014 60.4522 173.004 62.4627 170.527 62.4627C168.043 62.4627 166.039 60.4522 166.039 57.9752ZM170.343 98.1453C170.277 98.5198 170.251 98.7366 170.251 98.7366C170.251 98.7366 170.231 98.6184 170.185 98.4081L170.343 98.1453ZM173.766 101.371C173.766 101.371 173.779 101.371 173.792 101.365C173.897 101.286 174.331 100.563 175.448 94.4989C176.768 87.3308 184.456 83.9406 184.456 83.9406C187.813 97.37 174.456 101.187 173.786 101.371C173.772 101.378 173.766 101.371 173.766 101.371ZM164.903 97.1926C164.903 97.1926 153.182 94.6303 153.99 83.1259C164.022 85.8394 164.903 97.1926 164.903 97.1926ZM102.985 16.6685L141.546 50.2881V113.066H117.013V72.791H90.1604V77.193V113.066H64.425V50.2881L102.985 16.6685ZM129.995 24.6973H138.188V41.0373C135.527 38.7115 132.761 36.3002 129.995 33.8824V24.6973ZM94.5624 77.193H112.604V113.066H94.5624V77.193ZM75.4761 117.468H94.5624H99.4309L15.0239 145.07C13.2236 141.239 11.6599 137.271 10.359 133.184L75.4761 117.468ZM8.80847 127.757C7.94778 124.393 7.27106 120.964 6.77172 117.468H54.1098L8.80847 127.757ZM117.4 117.468H141.546H144.095H144.561C124.989 122.442 35.4637 156.692 24.4061 160.936C21.8306 157.395 19.485 153.67 17.3957 149.787L117.4 117.468ZM28.0525 66.4902C28.0525 63.665 30.3455 61.372 33.1707 61.372C35.9959 61.372 38.2889 63.665 38.2889 66.4902C38.2889 69.3154 35.9959 71.6084 33.1707 71.6084C30.3389 71.6084 28.0525 69.3154 28.0525 66.4902ZM37.7698 97.1926C37.7698 97.1926 38.6502 85.8394 48.6829 83.1259C49.491 94.6303 37.7698 97.1926 37.7698 97.1926ZM28.9066 101.371C28.9066 101.371 28.9001 101.378 28.8804 101.365C28.2102 101.181 14.853 97.3635 18.2104 83.934C18.2104 83.934 25.9041 87.3242 27.2181 94.4923C28.335 100.557 28.7687 101.279 28.8738 101.358C28.8935 101.365 28.9066 101.371 28.9066 101.371ZM27.7897 165.325C37.3296 161.666 116.684 131.252 129.989 126.18C144.148 120.786 164.101 117.468 164.101 117.468H174.338C165.343 120.819 119.509 137.928 106.993 143.729C94.6281 149.458 47.6448 170.884 37.4347 175.542C33.9788 172.375 30.7594 168.959 27.7897 165.325ZM111.809 200.969C132.768 184.392 178.943 147.888 188.076 140.687C190.605 138.696 193.417 136.719 196.269 134.833C184.055 171.002 151.256 197.683 111.809 200.969Z" fill="white"/>
<path d="M103.78 62.7712C111.29 62.7712 117.4 56.6609 117.4 49.1512C117.4 41.6415 111.29 35.5312 103.78 35.5312C96.2704 35.5312 90.1602 41.6415 90.1602 49.1512C90.1602 56.6609 96.2704 62.7712 103.78 62.7712ZM105.502 40.3209C109.089 41.0174 111.914 43.8425 112.61 47.4298H105.502V40.3209ZM105.502 50.8726H112.61C111.914 54.4599 109.089 57.2851 105.502 57.9815V50.8726ZM102.059 40.3209V47.4298H94.9498C95.6463 43.8425 98.4714 41.0174 102.059 40.3209ZM102.059 50.8726V57.9815C98.4714 57.2851 95.6463 54.4599 94.9498 50.8726H102.059Z" fill="white"/>
<path d="M256.563 106.554C256.563 106.554 257.667 105.227 260.841 103.676C264.014 102.126 272.72 95.122 263.423 89.6622C254.126 84.2024 237.431 90.2404 239.028 95.1877C242.838 93.716 246.097 92.4217 246.097 92.4217C246.097 92.4217 244.533 90.1024 248.738 90.1024C252.943 90.1024 260.762 91.2851 258.699 97.553C256.636 103.821 243.798 108.249 244.829 109.872C245.861 111.495 250.657 108.322 254.566 109.872C258.475 111.423 264.395 121.16 259.04 129.786C259.04 129.786 253.981 135.318 247.779 131.337C247.779 131.337 246.498 130.877 246.531 129.668C248.771 128.006 249.606 124.944 248.37 122.329C246.964 119.346 243.403 118.065 240.421 119.471C237.563 120.818 236.275 124.143 237.411 127.047C237.405 127.033 237.398 127.027 237.392 127.014C237.95 128.577 241.57 137.059 253.83 135.253C267.332 133.262 269.251 124.037 269.914 121.383C270.578 118.722 269.467 107.954 256.563 106.554Z" fill="white"/>
<path d="M284.971 108.343C284.971 108.343 284.255 94.362 303.262 89.7301L303.584 88.5343C303.584 88.5343 282.415 87.8181 276.022 108.35C269.629 128.882 287.126 135.031 287.126 135.031C287.126 135.031 304.143 138.612 308.137 124.881C312.132 111.142 297.513 98.8363 284.971 108.343ZM291.961 132.87C287.704 132.87 284.255 127.522 284.255 120.925C284.255 114.329 287.704 108.981 291.961 108.981C296.219 108.981 299.668 114.329 299.668 120.925C299.668 127.522 296.219 132.87 291.961 132.87Z" fill="white"/>
<path d="M344.713 111.985C336.133 99.2717 319.799 106.46 319.799 106.46C319.799 106.46 320.246 99.1535 320.437 97.8132C320.627 96.4794 322.473 97.1759 332.894 97.1759C343.314 97.1759 343.57 88.1484 343.57 88.1484C342.046 89.0354 338.551 89.2916 338.551 89.2916C338.551 89.2916 321.521 89.1011 319.74 89.0354C318.025 89.8633 316.37 107.787 316.245 109.817C316.12 111.854 317.388 112.103 318.663 111.026C324.195 106.643 336.967 107.596 337.539 120.914C338.11 134.238 327.92 133.568 325.272 132.858C322.5 132.116 322.808 129.784 322.808 129.784L322.802 129.777C325.174 128.148 326.094 125.001 324.825 122.313C323.419 119.331 319.858 118.049 316.876 119.455C314.504 120.572 313.216 123.043 313.492 125.513H313.485C313.485 125.526 313.492 125.539 313.492 125.552C313.564 126.183 313.735 126.807 314.018 127.412C314.031 127.432 314.044 127.451 314.05 127.478C316.902 135.375 324.609 135.059 330.923 135.178C337.723 135.309 353.294 124.698 344.713 111.985Z" fill="white"/>
<path d="M410.392 91.0961C405.503 91.6217 404.498 92.3904 401.673 98.8094C399.708 103.363 392.238 120.8 386.68 135.313H384.236C379.4 122.475 373.309 107.384 369.289 97.4166C367.133 92.1933 365.938 91.4771 361.621 91.1421V88.987H379.873V91.0961C374.65 91.6217 374.604 92.2458 375.708 95.4061C377.672 100.439 383.04 114.092 387.586 125.346H387.685C391.614 115.859 396.647 103.067 398.848 96.6019C400.287 92.4824 399.899 91.7596 394.058 91.0895V88.9805H410.398V91.0961H410.392Z" fill="white"/>
<path d="M414.227 134.546V132.535C420.074 132.102 420.692 131.675 420.692 125.637V97.996C420.692 91.912 420.067 91.4784 414.227 91.0973V88.9883H433.773V91.0973C427.978 91.4784 427.354 91.912 427.354 97.996V125.637C427.354 131.675 427.978 132.102 433.773 132.535V134.546H414.227Z" fill="white"/>
<path d="M474.735 123.239C474.256 125.637 472.771 132.391 472.055 134.546H439V132.535C445.13 132.102 445.754 131.622 445.754 125.492V97.996C445.754 91.912 445.275 91.4784 439.335 91.0973V88.9883H458.737V91.0973C453.086 91.4784 452.41 91.866 452.41 97.996V125.256C452.41 129.086 452.745 130.426 454.085 131.149C455.471 131.918 457.916 132.062 460.747 132.062C464.532 132.062 467.074 131.629 468.697 129.809C470.038 128.468 471.378 126.169 472.58 122.812L474.735 123.239Z" fill="white"/>
<path d="M513.696 123.239C513.217 125.637 511.732 132.391 511.015 134.546H477.961V132.535C484.091 132.102 484.715 131.622 484.715 125.492V97.996C484.715 91.912 484.235 91.4784 478.296 91.0973V88.9883H497.698V91.0973C492.047 91.4784 491.371 91.866 491.371 97.996V125.256C491.371 129.086 491.706 130.426 493.046 131.149C494.432 131.918 496.876 132.062 499.708 132.062C503.493 132.062 506.035 131.629 507.658 129.809C508.998 128.468 510.339 126.169 511.541 122.812L513.696 123.239Z" fill="white"/>
<path d="M546.324 134.548V132.537C550.778 131.913 551.403 131.289 550.443 128.464C549.438 125.685 548.144 122.189 546.613 118.162H531.232C530.036 121.375 529.077 124.101 528.164 126.88C526.633 131.144 527.205 131.959 532.618 132.531V134.541H516.811V132.531C521.456 131.815 522.461 131.335 525.004 125.106L540.049 88.55L542.539 87.9258C547.138 100.337 551.738 112.787 556.481 125.1C558.781 131.282 559.786 132.045 564.431 132.524V134.535H546.324V134.548ZM539.281 97.5577H539.136C536.836 103.353 534.583 109.345 532.428 114.995H545.555L539.281 97.5577Z" fill="white"/>
</svg>
